<svg width="331" height="100" viewBox="0 0 331 100" fill="none" xmlns="http://www.w3.org/2000/svg">
<g filter="url(#filter0_d_134_13)">
<rect x="14" y="12" width="298.658" height="68" rx="34" fill="url(#paint0_linear_134_13)"/>
</g>
<path d="M107.548 34.272H98.3602V52.4419C98.3602 52.77 98.2508 53.0435 98.0321 53.2622C97.8133 53.4718 97.5445 53.5767 97.2255 53.5767C96.8973 53.5767 96.6239 53.4718 96.4051 53.2622C96.1864 53.0435 96.077 52.77 96.077 52.4419V33.1235C96.077 32.7954 96.1864 32.522 96.4051 32.3032C96.6239 32.0845 96.8973 31.9751 97.2255 31.9751H108.696C109.024 31.9751 109.298 32.0845 109.516 32.3032C109.735 32.522 109.845 32.7954 109.845 33.1235V52.4419C109.845 52.77 109.735 53.0435 109.516 53.2622C109.298 53.4718 109.024 53.5767 108.696 53.5767C108.368 53.5767 108.095 53.4718 107.876 53.2622C107.657 53.0435 107.548 52.77 107.548 52.4419V34.272ZM122.874 49.6392C123.767 48.509 124.214 47.0643 124.214 45.3052C124.214 43.5734 123.767 42.1242 122.874 40.9575C121.981 39.8182 120.869 39.2485 119.538 39.2485C118.207 39.2485 117.095 39.8182 116.202 40.9575C115.309 42.1242 114.862 43.5734 114.862 45.3052C114.862 47.0643 115.309 48.509 116.202 49.6392C117.095 50.7876 118.207 51.3618 119.538 51.3618C120.869 51.3618 121.981 50.7876 122.874 49.6392ZM115.97 38.1138C117.027 37.4028 118.216 37.0474 119.538 37.0474C120.86 37.0474 122.049 37.4028 123.106 38.1138C124.164 38.8156 124.988 39.7954 125.581 41.0532C126.182 42.311 126.483 43.7284 126.483 45.3052C126.483 46.882 126.182 48.2993 125.581 49.5571C124.988 50.8058 124.164 51.7856 123.106 52.4966C122.049 53.1984 120.86 53.5493 119.538 53.5493C118.216 53.5493 117.027 53.1984 115.97 52.4966C114.912 51.7856 114.083 50.8058 113.481 49.5571C112.889 48.2993 112.593 46.882 112.593 45.3052C112.593 43.7284 112.889 42.311 113.481 41.0532C114.083 39.7954 114.912 38.8156 115.97 38.1138ZM131.501 51.1978H138.186V39.4126H134.085C133.228 39.4126 132.663 39.5265 132.39 39.7544C132.125 39.9731 131.993 40.4927 131.993 41.313V45.7017C131.993 46.9777 131.961 47.994 131.897 48.7505C131.843 49.507 131.71 50.3228 131.501 51.1978ZM142.384 53.3853C142.493 53.7316 142.548 54.078 142.548 54.4243V55.5864C142.548 55.8872 142.438 56.147 142.22 56.3657C142.001 56.5845 141.741 56.6938 141.44 56.6938C141.14 56.6938 140.875 56.5799 140.647 56.3521C140.429 56.1333 140.319 55.8781 140.319 55.5864V54.52C140.319 54.1828 140.224 53.9093 140.032 53.6997C139.841 53.4901 139.595 53.3853 139.294 53.3853H130.872C130.553 53.3853 130.302 53.481 130.12 53.6724C129.947 53.8638 129.86 54.1326 129.86 54.479V55.5864C129.86 55.8872 129.751 56.147 129.532 56.3657C129.313 56.5845 129.049 56.6938 128.739 56.6938C128.447 56.6938 128.188 56.5799 127.96 56.3521C127.741 56.1333 127.632 55.8781 127.632 55.5864V54.3013C127.632 53.4992 127.978 52.7518 128.671 52.0591C128.999 51.7492 129.25 51.2889 129.423 50.6782C129.596 50.0584 129.696 49.5161 129.724 49.0513C129.751 48.5864 129.765 48.0122 129.765 47.3286V41.2993C129.765 40.4517 129.847 39.759 130.011 39.2212C130.175 38.6743 130.439 38.255 130.804 37.9634C131.177 37.6717 131.606 37.4757 132.089 37.3755C132.572 37.2661 133.192 37.2114 133.948 37.2114H139.294C139.604 37.2114 139.868 37.3208 140.087 37.5396C140.306 37.7492 140.415 38.009 140.415 38.3188V51.3345C141.418 51.772 142.074 52.4556 142.384 53.3853ZM153.95 47.7524H153.964C154.356 46.5767 154.451 45.3553 154.251 44.0884C154.041 42.8032 153.554 41.7095 152.788 40.8071C151.986 39.9048 151.074 39.4035 150.054 39.3032H150.04C149.347 39.2394 148.737 39.326 148.208 39.563C147.679 39.7909 147.123 40.2192 146.54 40.8481V49.8032C147.46 50.8696 148.509 51.4028 149.684 51.4028C150.669 51.4028 151.53 51.0565 152.268 50.3638C153.007 49.6711 153.567 48.8006 153.95 47.7524ZM156.52 45.2642C156.557 46.6222 156.297 47.9484 155.741 49.2427C155.194 50.5278 154.378 51.5806 153.294 52.4009C152.264 53.1665 151.029 53.5493 149.589 53.5493C148.623 53.5493 147.606 53.2804 146.54 52.7427V59.0454C146.54 59.3371 146.426 59.5923 146.198 59.811C145.979 60.0389 145.72 60.1528 145.419 60.1528C145.109 60.1528 144.845 60.0435 144.626 59.8247C144.416 59.6151 144.311 59.3553 144.311 59.0454V38.1958C144.311 37.895 144.416 37.6353 144.626 37.4165C144.845 37.1978 145.109 37.0884 145.419 37.0884C145.811 37.0884 146.184 37.3664 146.54 37.9224L146.854 37.7583C148.039 37.1294 149.32 36.9334 150.696 37.1704C152.082 37.4074 153.248 38.0409 154.196 39.0708C155.718 40.7388 156.493 42.8032 156.52 45.2642ZM168.456 49.6392C169.349 48.509 169.796 47.0643 169.796 45.3052C169.796 43.5734 169.349 42.1242 168.456 40.9575C167.563 39.8182 166.451 39.2485 165.12 39.2485C163.789 39.2485 162.677 39.8182 161.784 40.9575C160.891 42.1242 160.444 43.5734 160.444 45.3052C160.444 47.0643 160.891 48.509 161.784 49.6392C162.677 50.7876 163.789 51.3618 165.12 51.3618C166.451 51.3618 167.563 50.7876 168.456 49.6392ZM161.552 38.1138C162.609 37.4028 163.798 37.0474 165.12 37.0474C166.442 37.0474 167.631 37.4028 168.688 38.1138C169.746 38.8156 170.571 39.7954 171.163 41.0532C171.765 42.311 172.065 43.7284 172.065 45.3052C172.065 46.882 171.765 48.2993 171.163 49.5571C170.571 50.8058 169.746 51.7856 168.688 52.4966C167.631 53.1984 166.442 53.5493 165.12 53.5493C163.798 53.5493 162.609 53.1984 161.552 52.4966C160.494 51.7856 159.665 50.8058 159.063 49.5571C158.471 48.2993 158.175 46.882 158.175 45.3052C158.175 43.7284 158.471 42.311 159.063 41.0532C159.665 39.7954 160.494 38.8156 161.552 38.1138ZM184.274 47.9302C184.712 46.8182 184.849 45.6196 184.684 44.3345C184.557 43.3592 184.188 42.4204 183.577 41.5181C182.975 40.6157 182.132 39.9412 181.048 39.4946C180.701 39.3488 180.305 39.2713 179.858 39.2622C179.421 39.244 178.988 39.2987 178.559 39.4263C178.131 39.5448 177.735 39.7179 177.37 39.9458C177.005 40.1646 176.709 40.4608 176.481 40.8345C176.263 41.2082 176.153 41.6183 176.153 42.0649V48.2993C176.153 49.147 176.486 49.867 177.151 50.4595C177.817 51.0428 178.596 51.3345 179.489 51.3345C180.546 51.3345 181.503 51.0291 182.36 50.4185C183.217 49.8078 183.855 48.9784 184.274 47.9302ZM186.776 43.3091C187.141 45.0955 187.036 46.7954 186.462 48.4087C185.842 50.1587 184.83 51.5031 183.427 52.4419C182.351 53.1802 181.025 53.5493 179.448 53.5493C178.5 53.5493 177.602 53.3306 176.755 52.8931C175.916 52.4556 175.233 51.8312 174.704 51.02C174.184 50.1997 173.925 49.2928 173.925 48.2993V41.9419C173.925 40.0278 174.061 38.4419 174.335 37.1841C174.918 34.55 176.108 32.7271 177.903 31.7153C178.851 31.1867 180.168 30.9224 181.854 30.9224H182.018C183.386 30.9224 184.375 30.7765 184.985 30.4849C185.286 30.3299 185.6 30.3345 185.929 30.4985C186.12 30.5988 186.27 30.7537 186.38 30.9634C186.498 31.173 186.544 31.4054 186.516 31.6606C186.48 31.9979 186.28 32.2668 185.915 32.4673C185.423 32.7407 184.885 32.923 184.302 33.0142C183.727 33.0962 183.03 33.1372 182.21 33.1372C181.162 33.1372 180.35 33.2056 179.776 33.3423C178.71 33.6066 177.912 34.2218 177.384 35.188C176.992 35.908 176.7 36.7922 176.509 37.8403C177.302 37.4575 178.044 37.216 178.737 37.1157C179.43 37.0155 180.246 37.0565 181.184 37.2388C182.615 37.5669 183.832 38.3097 184.835 39.4673C185.847 40.6613 186.494 41.9419 186.776 43.3091ZM198.643 45.8247H191.52V52.4556C191.52 52.7563 191.411 53.0161 191.192 53.2349C190.974 53.4445 190.714 53.5493 190.413 53.5493C190.103 53.5493 189.839 53.4445 189.62 53.2349C189.401 53.0161 189.292 52.7563 189.292 52.4556V38.1548C189.292 37.8449 189.401 37.5851 189.62 37.3755C189.839 37.1567 190.103 37.0474 190.413 37.0474C190.714 37.0474 190.974 37.1567 191.192 37.3755C191.411 37.5851 191.52 37.8449 191.52 38.1548V43.8286H198.643V38.1548C198.643 37.8449 198.748 37.5851 198.958 37.3755C199.177 37.1567 199.441 37.0474 199.751 37.0474C200.061 37.0474 200.321 37.1567 200.53 37.3755C200.749 37.5851 200.858 37.8449 200.858 38.1548V52.4556C200.858 52.7563 200.749 53.0161 200.53 53.2349C200.321 53.4445 200.061 53.5493 199.751 53.5493C199.441 53.5493 199.177 53.4445 198.958 53.2349C198.748 53.0161 198.643 52.7563 198.643 52.4556V45.8247ZM205.315 43.8286H214.544C214.371 43.1815 214.166 42.6027 213.929 42.0923C213.692 41.5819 213.391 41.1034 213.026 40.6567C212.671 40.2101 212.229 39.8683 211.7 39.6313C211.181 39.3853 210.593 39.2622 209.936 39.2622C207.731 39.2622 206.19 40.7843 205.315 43.8286ZM216.827 44.3208C216.927 45.3234 216.358 45.8247 215.118 45.8247H205.192C205.329 47.438 205.817 48.7642 206.655 49.8032C207.403 50.7329 208.437 51.2707 209.759 51.4165C211.08 51.5623 212.224 51.2707 213.19 50.5415C213.619 50.2225 213.983 49.8169 214.284 49.3247C214.503 48.9692 214.831 48.7915 215.268 48.7915C215.669 48.7915 215.979 48.9738 216.198 49.3384C216.417 49.6938 216.421 50.0493 216.212 50.4048C215.701 51.2798 214.972 52.0135 214.024 52.606C213.022 53.2349 211.705 53.5493 210.073 53.5493C208.341 53.5493 206.91 53.0571 205.78 52.0728C204.942 51.3527 204.281 50.4549 203.798 49.3794C203.315 48.3039 203.041 47.1737 202.977 45.9888C202.905 44.6216 203.069 43.3364 203.47 42.1333C203.871 40.9211 204.472 39.8774 205.274 39.0024C206.386 37.8084 207.785 37.1567 209.472 37.0474C211.167 36.938 212.662 37.4211 213.956 38.4966C214.776 39.1984 215.432 40.0597 215.925 41.0806C216.426 42.1014 216.727 43.1815 216.827 44.3208ZM220.382 43.8286H229.61C229.437 43.1815 229.232 42.6027 228.995 42.0923C228.758 41.5819 228.457 41.1034 228.093 40.6567C227.737 40.2101 227.295 39.8683 226.766 39.6313C226.247 39.3853 225.659 39.2622 225.003 39.2622C222.797 39.2622 221.257 40.7843 220.382 43.8286ZM231.893 44.3208C231.994 45.3234 231.424 45.8247 230.184 45.8247H220.259C220.395 47.438 220.883 48.7642 221.722 49.8032C222.469 50.7329 223.503 51.2707 224.825 51.4165C226.147 51.5623 227.291 51.2707 228.257 50.5415C228.685 50.2225 229.05 49.8169 229.35 49.3247C229.569 48.9692 229.897 48.7915 230.335 48.7915C230.736 48.7915 231.046 48.9738 231.265 49.3384C231.483 49.6938 231.488 50.0493 231.278 50.4048C230.768 51.2798 230.039 52.0135 229.091 52.606C228.088 53.2349 226.771 53.5493 225.14 53.5493C223.408 53.5493 221.977 53.0571 220.847 52.0728C220.008 51.3527 219.347 50.4549 218.864 49.3794C218.381 48.3039 218.108 47.1737 218.044 45.9888C217.971 44.6216 218.135 43.3364 218.536 42.1333C218.937 40.9211 219.539 39.8774 220.341 39.0024C221.453 37.8084 222.852 37.1567 224.538 37.0474C226.233 36.938 227.728 37.4211 229.022 38.4966C229.843 39.1984 230.499 40.0597 230.991 41.0806C231.492 42.1014 231.793 43.1815 231.893 44.3208Z" fill="white"/>
<defs>
<filter id="filter0_d_134_13" x="0" y="0" width="330.658" height="100" filterUnits="userSpaceOnUse" color-interpolation-filters="sRGB">
<feFlood flood-opacity="0" result="BackgroundImageFix"/>
<feColorMatrix in="SourceAlpha" type="matrix" values="0 0 0 0 0 0 0 0 0 0 0 0 0 0 0 0 0 0 127 0" result="hardAlpha"/>
<feMorphology radius="1" operator="dilate" in="SourceAlpha" result="effect1_dropShadow_134_13"/>
<feOffset dx="2" dy="4"/>
<feGaussianBlur stdDeviation="7.5"/>
<feComposite in2="hardAlpha" operator="out"/>
<feColorMatrix type="matrix" values="0 0 0 0 0.658333 0 0 0 0 0.411739 0 0 0 0 0.0192014 0 0 0 0.46 0"/>
<feBlend mode="normal" in2="BackgroundImageFix" result="effect1_dropShadow_134_13"/>
<feBlend mode="normal" in="SourceGraphic" in2="effect1_dropShadow_134_13" result="shape"/>
</filter>
<linearGradient id="paint0_linear_134_13" x1="35.5793" y1="23.4423" x2="292.737" y2="93.6616" gradientUnits="userSpaceOnUse">
<stop stop-color="#DC8A09"/>
<stop offset="1" stop-color="#F1AF47"/>
</linearGradient>
</defs>
</svg>
